# 3ds Max Wavefront OBJ Exporter v0.97b - (c)2007 guruware
# File Created: 17.04.2017 15:42:19

mtllib Cabinet.mtl

#
# object cabinet
#

v  23.2283 5.9055 -7.2835
v  23.2283 5.9055 7.2835
v  -23.0315 5.9055 7.2835
v  -23.0315 5.9055 -7.2835
v  23.0315 41.3386 -7.2835
v  -23.0315 41.3386 -7.2835
v  -23.0315 41.3386 7.2835
v  23.0315 41.3386 7.2835
v  22.4409 40.5512 -7.0866
v  -22.4409 40.5512 -7.0866
v  -22.4409 6.6929 -7.0866
v  22.4409 6.6929 -7.0866
v  23.2283 41.1417 -7.2835
v  23.2283 41.1417 7.2835
v  -23.0315 41.1417 -7.4803
v  23.0315 41.1417 -7.4803
v  23.0315 6.1024 -7.4803
v  -23.0315 6.1024 -7.4803
v  -23.2283 41.1417 7.2835
v  -23.2283 41.1417 -7.2835
v  -23.2283 6.1024 -7.2835
v  -23.2283 6.1024 7.2835
v  22.5801 6.5537 7.4803
v  -22.5801 6.5537 7.4803
v  -23.0892 6.0447 7.4803
v  23.0892 6.0447 7.4803
v  22.5801 40.6904 7.4803
v  23.0892 41.1994 7.4803
v  -22.5801 40.6904 7.4803
v  -23.0892 41.1994 7.4803
v  -22.4409 6.6929 7.2835
v  22.4409 6.6929 7.2835
v  22.4409 40.5512 7.2835
v  -22.4409 40.5512 7.2835
v  -21.3852 0.0000 6.0188
v  -21.3852 0.0000 6.7556
v  -22.1220 0.0000 6.7556
v  -22.1220 0.0000 6.0188
v  -20.5459 4.4838 6.7541
v  -20.5459 5.9055 6.7541
v  -22.1207 5.9055 6.7541
v  -22.1207 4.4838 6.7541
v  -20.5459 4.4838 5.1793
v  -20.5459 4.4838 5.5257
v  -20.5459 4.4838 6.4076
v  -22.1207 4.4838 5.1793
v  -21.7742 4.4838 5.1793
v  -20.8923 4.4838 5.1793
v  -22.1207 5.9055 5.1793
v  -20.5459 5.9055 5.5257
v  -20.5459 5.9055 5.1793
v  -20.5459 5.9055 6.4076
v  -21.7742 5.9055 5.1793
v  -20.8923 5.9055 5.1793
v  -21.3852 0.0000 -6.0188
v  -22.1220 0.0000 -6.0188
v  -22.1220 0.0000 -6.7556
v  -21.3852 0.0000 -6.7556
v  -20.5459 4.4838 -6.7541
v  -22.1207 4.4838 -6.7541
v  -22.1207 5.9055 -6.7541
v  -20.5459 5.9055 -6.7541
v  -20.5459 4.4838 -5.5257
v  -20.5459 4.4838 -5.1793
v  -20.5459 4.4838 -6.4076
v  -21.7742 4.4838 -5.1793
v  -22.1207 4.4838 -5.1793
v  -20.8923 4.4838 -5.1793
v  -22.1207 5.9055 -5.1793
v  -20.5459 5.9055 -5.5257
v  -20.5459 5.9055 -5.1793
v  -20.5459 5.9055 -6.4076
v  -21.7742 5.9055 -5.1793
v  -20.8923 5.9055 -5.1793
v  21.3852 0.0000 6.0188
v  22.1220 0.0000 6.0188
v  22.1220 0.0000 6.7556
v  21.3852 0.0000 6.7556
v  20.5459 4.4838 6.7541
v  22.1207 4.4838 6.7541
v  22.1207 5.9055 6.7541
v  20.5459 5.9055 6.7541
v  20.5459 4.4838 5.5257
v  20.5459 4.4838 5.1793
v  20.5459 4.4838 6.4076
v  21.7742 4.4838 5.1793
v  22.1207 4.4838 5.1793
v  20.8923 4.4838 5.1793
v  22.1207 5.9055 5.1793
v  20.5459 5.9055 5.5257
v  20.5459 5.9055 5.1793
v  20.5459 5.9055 6.4076
v  21.7742 5.9055 5.1793
v  20.8923 5.9055 5.1793
v  21.3852 0.0000 -6.0188
v  21.3852 0.0000 -6.7556
v  22.1220 0.0000 -6.7556
v  22.1220 0.0000 -6.0188
v  20.5459 4.4838 -6.7541
v  20.5459 5.9055 -6.7541
v  22.1207 5.9055 -6.7541
v  22.1207 4.4838 -6.7541
v  20.5459 4.4838 -5.1793
v  20.5459 4.4838 -5.5257
v  20.5459 4.4838 -6.4076
v  22.1207 4.4838 -5.1793
v  21.7742 4.4838 -5.1793
v  20.8923 4.4838 -5.1793
v  22.1207 5.9055 -5.1793
v  20.5459 5.9055 -5.5257
v  20.5459 5.9055 -5.1793
v  20.5459 5.9055 -6.4076
v  21.7742 5.9055 -5.1793
v  20.8923 5.9055 -5.1793
v  22.4817 19.6087 -7.2433
v  22.4817 19.6087 5.9458
v  -22.5918 19.6087 5.9458
v  -22.5918 19.6087 -7.2433
v  22.4817 20.3961 -7.2433
v  -22.5918 20.3961 -7.2433
v  -22.5918 20.3961 5.9458
v  22.4817 20.3961 5.9458
v  22.4817 29.7089 -7.2433
v  22.4817 29.7089 5.9458
v  -22.5918 29.7089 5.9458
v  -22.5918 29.7089 -7.2433
v  22.4817 30.4963 -7.2433
v  -22.5918 30.4963 -7.2433
v  -22.5918 30.4963 5.9458
v  22.4817 30.4963 5.9458
# 130 vertices

vn 0.0000 -1.0000 -0.0000
vn 0.0000 1.0000 -0.0000
vn 0.0000 0.0000 1.0000
vn 1.0000 0.0000 -0.0000
vn 0.0000 0.0000 -1.0000
vn -1.0000 0.0000 -0.0000
vn 0.0000 0.0002 1.0000
vn 0.0000 0.0003 1.0000
vn 0.9829 -0.1840 -0.0000
vn 0.9962 -0.0867 -0.0000
vn 0.9924 -0.1231 -0.0000
vn 0.9957 -0.0924 -0.0000
vn 0.0000 -0.1840 -0.9829
vn 0.0000 -0.0924 -0.9957
vn 0.0000 -0.1232 -0.9924
vn 0.0000 -0.0867 -0.9962
vn -1.0000 0.0001 -0.0000
vn -1.0000 0.0003 -0.0000
vn 0.0000 0.0002 -1.0000
vn 0.0000 0.0003 -1.0000
vn 0.0000 -0.1232 0.9924
vn 0.0000 -0.0924 0.9957
vn 0.0000 -0.1840 0.9829
vn 0.0000 -0.0867 0.9962
vn -0.9924 -0.1231 -0.0000
vn -0.9962 -0.0867 -0.0000
vn -0.9829 -0.1840 -0.0000
vn -0.9957 -0.0924 -0.0000
vn 1.0000 0.0001 -0.0000
vn 1.0000 0.0003 -0.0000
vn -0.6786 -0.6786 0.2811
vn -0.5774 -0.5774 -0.5774
vn -0.6786 0.6786 0.2811
vn 0.6786 0.6786 0.2811
vn -0.5774 0.5774 -0.5774
vn 0.5774 0.5774 -0.5774
vn -0.7071 -0.7071 -0.0000
vn 0.0000 -0.7071 -0.7071
vn 0.0000 -0.8165 0.5774
vn 0.0000 0.8165 0.5774
vn 0.7071 0.7071 -0.0000
vn 0.0000 0.7071 -0.7071
vn -0.7071 0.7071 -0.0000
vn 0.7071 0.0000 -0.7071
vn 0.8165 0.0000 0.5774
vn -0.7071 0.0000 -0.7071
vn -0.8165 0.0000 0.5774
# 47 vertex normals

vt 0.0005 0.9864 0.0000
vt 0.0005 0.0136 0.0000
vt 0.9953 0.0136 0.0000
vt 0.9953 0.9864 0.0000
vt 0.0047 0.9864 0.0000
vt 0.0047 0.0136 0.0000
vt 0.9826 0.9805 0.0000
vt 0.0174 0.9805 0.0000
vt 0.0174 0.1622 0.0000
vt 0.9826 0.1622 0.0000
vt 0.9864 0.9947 0.0000
vt 0.0136 0.9947 0.0000
vt 0.0136 0.1432 0.0000
vt 0.9864 0.1432 0.0000
vt 0.9953 0.9947 0.0000
vt 0.0047 0.9947 0.0000
vt 0.0047 0.1480 0.0000
vt 0.9953 0.1480 0.0000
vt 0.0136 0.1480 0.0000
vt 0.9864 0.1480 0.0000
vt 0.9856 0.1589 0.0000
vt 0.0144 0.1589 0.0000
vt 0.0035 0.1466 0.0000
vt 0.9965 0.1466 0.0000
vt 0.9856 0.9838 0.0000
vt 0.9965 0.9961 0.0000
vt 0.0144 0.9838 0.0000
vt 0.0035 0.9961 0.0000
vt 0.9826 0.9732 0.0000
vt 0.0174 0.9732 0.0000
vt 0.0174 0.0136 0.0000
vt 0.9826 0.0136 0.0000
vt 0.0268 0.9805 0.0000
vt 0.0268 0.1622 0.0000
vt 0.9864 0.1622 0.0000
vt 0.9864 0.9805 0.0000
vt 0.9732 0.1622 0.0000
vt 0.9732 0.9805 0.0000
vt 0.0136 0.9805 0.0000
vt 0.0136 0.1622 0.0000
vt 0.9599 0.0981 0.0000
vt 0.9599 0.0489 0.0000
vt 0.9757 0.0489 0.0000
vt 0.9757 0.0981 0.0000
vt 0.0582 0.1089 0.0000
vt 0.0582 0.1432 0.0000
vt 0.0243 0.1432 0.0000
vt 0.0243 0.1089 0.0000
vt 0.0401 0.0005 0.0000
vt 0.0243 0.0005 0.0000
vt 0.0981 0.0005 0.0000
vt 0.1542 0.1089 0.0000
vt 0.1310 0.1089 0.0000
vt 0.0721 0.1089 0.0000
vt 0.0490 0.1089 0.0000
vt 0.0489 0.0005 0.0000
vt 0.9757 0.0005 0.0000
vt 0.9757 0.1089 0.0000
vt 0.9682 0.1089 0.0000
vt 0.9493 0.1089 0.0000
vt 0.9418 0.1089 0.0000
vt 0.9599 0.0005 0.0000
vt 0.9510 0.1089 0.0000
vt 0.9510 0.1432 0.0000
vt 0.8458 0.1432 0.0000
vt 0.8458 0.1089 0.0000
vt 0.9511 0.0005 0.0000
vt 0.9019 0.0005 0.0000
vt 0.1310 0.1432 0.0000
vt 0.1542 0.1432 0.0000
vt 0.0721 0.1432 0.0000
vt 0.0490 0.1432 0.0000
vt 0.9682 0.1432 0.0000
vt 0.9757 0.1432 0.0000
vt 0.9493 0.1432 0.0000
vt 0.9418 0.1432 0.0000
vt 0.9599 0.9019 0.0000
vt 0.9757 0.9019 0.0000
vt 0.9757 0.9511 0.0000
vt 0.9599 0.9511 0.0000
vt 0.8690 0.1089 0.0000
vt 0.9279 0.1089 0.0000
vt 0.0318 0.1089 0.0000
vt 0.0507 0.1089 0.0000
vt 0.8690 0.1432 0.0000
vt 0.9279 0.1432 0.0000
vt 0.0318 0.1432 0.0000
vt 0.0507 0.1432 0.0000
vt 0.9682 0.1542 0.0000
vt 0.9682 0.8458 0.0000
vt 0.9493 0.8458 0.0000
vt 0.9493 0.1542 0.0000
vt 0.0401 0.0981 0.0000
vt 0.0243 0.0981 0.0000
vt 0.0243 0.0489 0.0000
vt 0.0401 0.0489 0.0000
vt 0.9418 0.1310 0.0000
vt 0.0582 0.1310 0.0000
vt 0.0582 0.0721 0.0000
vt 0.9418 0.0721 0.0000
vt 0.0401 0.9019 0.0000
vt 0.0401 0.9511 0.0000
vt 0.0243 0.9511 0.0000
vt 0.0243 0.9019 0.0000
vt 0.9418 0.8690 0.0000
vt 0.9418 0.9279 0.0000
vt 0.0582 0.9279 0.0000
vt 0.0582 0.8690 0.0000
vt 0.0318 0.1542 0.0000
vt 0.0507 0.1542 0.0000
vt 0.0507 0.8458 0.0000
vt 0.0318 0.8458 0.0000
vt 0.0166 0.9837 0.0000
vt 0.0166 0.1030 0.0000
vt 0.9858 0.1030 0.0000
vt 0.9858 0.9837 0.0000
vt 0.9834 0.9837 0.0000
vt 0.0142 0.9837 0.0000
vt 0.0142 0.1030 0.0000
vt 0.9834 0.1030 0.0000
vt 0.9834 0.4934 0.0000
vt 0.0142 0.4934 0.0000
vt 0.0142 0.4744 0.0000
vt 0.9834 0.4744 0.0000
vt 0.9834 0.7375 0.0000
vt 0.0142 0.7375 0.0000
vt 0.0142 0.7185 0.0000
vt 0.9834 0.7185 0.0000
vt -0.0070 0.1483 0.0000
vt -0.0070 0.1389 0.0000
vt -0.0023 0.1487 0.0000
vt 0.0074 0.1396 0.0000
vt -0.0070 1.0039 0.0000
vt -0.0070 0.9944 0.0000
vt 0.0054 0.9993 0.0000
vt 0.0506 0.9112 0.0000
vt 0.0074 1.0031 0.0000
vt -0.0023 0.9940 0.0000
vt -0.0103 0.9935 0.0000
vt -0.0103 0.9830 0.0000
vt 0.9864 0.1666 0.0000
vt 0.0136 0.1666 0.0000
vt 0.9953 0.1435 0.0000
vt 0.0004 0.1429 0.0000
vt 0.9995 0.1392 0.0000
vt 0.0047 0.1393 0.0000
vt 0.0047 1.0034 0.0000
vt 0.9953 1.0034 0.0000
vt 0.0136 0.9762 0.0000
vt 0.9864 0.9762 0.0000
vt 0.0047 0.9991 0.0000
vt 0.9953 0.9991 0.0000
vt -0.0023 0.1427 0.0000
vt -0.0026 0.9947 0.0000
vt 1.0040 0.9947 0.0000
vt 1.0040 0.1432 0.0000
vt 0.0112 0.1480 0.0000
vt 0.0112 0.9947 0.0000
vt -0.0040 0.1480 0.0000
vt -0.0040 0.9947 0.0000
vt 0.9856 0.1170 0.0000
vt 0.0144 0.1170 0.0000
vt 0.8899 0.9838 0.0000
vt 0.8899 0.1589 0.0000
vt 0.1101 0.1589 0.0000
vt 0.1101 0.9838 0.0000
# 166 texture coords

g cabinet
usemtl Material__25
s off
f 1/1/1 2/2/1 3/3/1 4/4/1 
f 5/4/2 6/5/2 7/6/2 8/3/2 
f 9/7/3 10/8/3 11/9/3 12/10/3 
f 13/11/4 14/12/4 2/13/4 1/14/4 
f 15/15/5 16/16/5 17/17/5 18/18/5 
f 19/11/6 20/12/6 21/19/6 22/20/6 
f 23/21/3 24/22/3 25/23/3 26/24/3 
f 27/25/3 23/21/3 26/24/3 28/26/3 
f 29/27/3 27/25/3 28/26/3 30/28/3 
f 24/22/3 29/27/3 30/28/3 25/23/3 
f 12/29/2 11/30/2 31/31/2 32/32/2 
f 9/33/6 12/34/6 32/35/6 33/36/6 
f 10/29/1 9/30/1 33/31/1 34/32/1 
f 11/37/4 10/38/4 34/39/4 31/40/4 
f 35/41/1 36/42/1 37/43/1 38/44/1 
f 39/45/7 40/46/3 41/47/3 42/48/7 
f 36/49/8 39/45/7 42/48/7 37/50/8 
f 35/51/9 43/52/10 44/53/11 45/54/11 
f 35/51/9 45/54/11 39/55/12 36/56/9 
f 38/57/13 46/58/14 47/59/15 48/60/15 
f 38/57/13 48/60/15 43/61/16 35/62/13 
f 42/63/17 41/64/6 49/65/6 46/66/17 
f 37/67/18 42/63/17 46/66/17 38/68/18 
f 50/69/4 44/53/11 43/52/10 51/70/4 
f 45/54/11 52/71/4 40/72/4 39/55/12 
f 53/73/5 47/59/15 46/58/14 49/74/5 
f 48/60/15 54/75/5 51/76/5 43/61/16 
f 55/77/1 56/78/1 57/79/1 58/80/1 
f 59/61/19 60/58/19 61/74/5 62/76/5 
f 58/62/20 57/57/20 60/58/19 59/61/19 
f 63/81/11 64/66/10 55/68/9 65/82/11 
f 59/63/12 65/82/11 55/68/9 58/67/9 
f 66/83/21 67/48/22 56/50/23 68/84/21 
f 64/45/24 68/84/21 56/50/23 55/49/23 
f 60/55/17 67/52/17 69/70/6 61/72/6 
f 57/56/18 56/51/18 67/52/17 60/55/17 
f 70/85/4 71/65/4 64/66/10 63/81/11 
f 65/82/11 59/63/12 62/64/4 72/86/4 
f 73/87/3 69/47/3 67/48/22 66/83/21 
f 68/84/21 64/45/24 71/46/3 74/88/3 
f 48/52/4 68/66/4 74/65/4 54/70/4 
f 47/89/1 66/90/1 68/91/1 48/92/1 
f 53/65/6 73/70/6 66/52/6 47/66/6 
f 75/93/1 76/94/1 77/95/1 78/96/1 
f 79/61/7 80/58/7 81/74/3 82/76/3 
f 78/62/8 77/57/8 80/58/7 79/61/7 
f 83/81/25 84/66/26 75/68/27 85/82/25 
f 79/63/28 85/82/25 75/68/27 78/67/27 
f 86/83/15 87/48/14 76/50/13 88/84/15 
f 84/45/16 88/84/15 76/50/13 75/49/13 
f 80/55/29 87/52/29 89/70/4 81/72/4 
f 77/56/30 76/51/30 87/52/29 80/55/29 
f 90/85/6 91/65/6 84/66/26 83/81/25 
f 85/82/25 79/63/28 82/64/6 92/86/6 
f 93/87/5 89/47/5 87/48/14 86/83/15 
f 88/84/15 84/45/16 91/46/5 94/88/5 
f 45/45/3 85/61/3 92/76/3 52/46/3 
f 44/97/1 83/98/1 85/99/1 45/100/1 
f 50/76/5 90/46/5 83/45/5 44/61/5 
f 95/101/1 96/102/1 97/103/1 98/104/1 
f 99/45/19 100/46/5 101/47/5 102/48/19 
f 96/49/20 99/45/19 102/48/19 97/50/20 
f 95/51/27 103/52/26 104/53/25 105/54/25 
f 95/51/27 105/54/25 99/55/28 96/56/27 
f 98/57/23 106/58/22 107/59/21 108/60/21 
f 98/57/23 108/60/21 103/61/24 95/62/23 
f 102/63/29 101/64/4 109/65/4 106/66/29 
f 97/67/30 102/63/29 106/66/29 98/68/30 
f 110/69/6 104/53/25 103/52/26 111/70/6 
f 105/54/25 112/71/6 100/72/6 99/55/28 
f 113/73/3 107/59/21 106/58/22 109/74/3 
f 108/60/21 114/75/3 111/76/3 103/61/24 
f 65/61/5 72/76/5 112/46/5 105/45/5 
f 63/105/1 65/106/1 105/107/1 104/108/1 
f 70/46/3 63/45/3 104/61/3 110/76/3 
f 88/66/6 94/65/6 114/70/6 108/52/6 
f 86/109/1 88/110/1 108/111/1 107/112/1 
f 93/70/4 86/52/4 107/66/4 113/65/4 
f 115/113/1 116/114/1 117/115/1 118/116/1 
f 119/117/2 120/118/2 121/119/2 122/120/2 
f 122/121/3 121/122/3 117/123/3 116/124/3 
f 123/113/1 124/114/1 125/115/1 126/116/1 
f 127/117/2 128/118/2 129/119/2 130/120/2 
f 130/125/3 129/126/3 125/127/3 124/128/3 
f 25/23/31 22/129/31 3/130/31 
f 21/19/32 18/131/32 4/132/32 
f 30/28/33 7/133/33 19/134/33 
f 14/12/34 8/135/34 28/136/34 
f 20/12/35 6/137/35 15/138/35 
f 16/16/36 5/139/36 13/140/36 
f 3/141/37 22/20/37 21/19/37 4/142/37 
f 4/143/38 18/18/38 17/17/38 1/144/38 
f 2/145/39 26/24/39 25/23/39 3/146/39 
f 7/147/40 30/28/40 28/26/40 8/148/40 
f 8/149/41 14/12/41 13/11/41 5/150/41 
f 5/151/42 16/16/42 15/15/42 6/152/42 
f 6/149/43 20/12/43 19/11/43 7/150/43 
f 1/153/44 17/17/44 16/16/44 13/154/44 
f 14/155/45 28/26/45 26/24/45 2/156/45 
f 18/157/46 21/19/46 20/12/46 15/158/46 
f 22/159/47 25/23/47 30/28/47 19/160/47 
f 23/161/40 32/32/40 31/31/40 24/162/40 
f 27/163/47 33/36/47 32/35/47 23/164/47 
f 29/161/39 34/32/39 33/31/39 27/162/39 
f 24/165/45 31/40/45 34/39/45 29/166/45 
# 99 polygons - 6 triangles

#
# object door2
#

v  22.4389 6.7122 6.8397
v  -0.0020 6.7122 6.8397
v  22.4389 6.7122 7.2334
v  -0.0020 6.7122 7.2334
v  -0.0020 40.5380 6.8397
v  22.4389 40.5380 6.8397
v  22.4389 40.5380 7.2334
v  -0.0020 40.5380 7.2334
v  -0.0020 26.3312 7.0169
v  -0.0020 20.9190 6.8397
v  -0.0020 26.3312 6.8397
v  -0.0020 20.9190 7.0169
v  0.1948 40.3412 7.4302
v  0.5148 26.3312 7.4302
v  0.1948 26.3312 7.4302
v  22.2737 40.4310 7.4302
v  -0.0020 26.4492 7.1325
v  -0.0020 20.8009 7.1325
v  -0.0020 20.9190 7.2334
v  0.5148 20.9190 7.4303
v  0.6270 26.3312 7.1350
v  0.6270 20.9190 7.1350
v  22.2737 6.8192 7.4303
v  0.1948 20.9190 7.4303
v  0.1161 20.9190 7.1350
v  0.1161 26.3312 7.1350
v  -0.0020 26.3312 7.2334
v  0.1948 6.9090 7.4303
# 28 vertices

vn 0.0000 -1.0000 0.0000
vn 0.0000 1.0000 -0.0000
vn -1.0000 0.0000 -0.0000
vn 0.0000 -0.0000 -1.0000
vn 1.0000 0.0000 -0.0000
vn 0.0000 0.0000 1.0000
vn -0.9347 -0.0000 -0.3554
vn -0.0016 -0.7915 0.6111
vn -0.0016 0.7915 0.6111
vn -0.7071 0.0000 0.7071
vn 0.7660 0.0000 0.6428
vn -0.7070 -0.7072 0.0000
vn -0.7070 0.7072 -0.0000
# 13 vertex normals

vt 0.9995 0.9995 0.0000
vt 0.0005 0.9995 0.0000
vt 0.9995 0.3335 0.0000
vt 0.0005 0.3335 0.0000
vt 0.6998 0.5799 0.0000
vt 0.9995 0.4201 0.0000
vt 0.9995 0.5799 0.0000
vt 0.6998 0.4201 0.0000
vt 0.0005 0.5799 0.0000
vt 0.9995 0.0005 0.0000
vt 0.0005 0.4201 0.0000
vt 0.6665 0.0005 0.0000
vt 0.6665 0.9995 0.0000
vt 0.0005 0.0005 0.0000
vt 0.7651 0.9899 0.0000
vt 0.7542 0.6732 0.0000
vt 0.7651 0.6732 0.0000
vt 0.0128 0.9919 0.0000
vt 0.5041 0.5834 0.0000
vt 0.3335 0.0005 0.0000
vt 0.5041 0.4166 0.0000
vt 0.3335 0.4201 0.0000
vt 0.0235 0.5799 0.0000
vt 0.0235 0.4201 0.0000
vt 0.0285 0.5799 0.0000
vt 0.0285 0.4201 0.0000
vt 0.0128 0.2321 0.0000
vt 0.7542 0.5508 0.0000
vt 0.9907 0.0005 0.0000
vt 0.9715 0.5000 0.0000
vt 0.9765 0.0005 0.0000
vt 0.9715 0.5799 0.0000
vt 0.9942 0.4201 0.0000
vt 0.9942 0.5799 0.0000
vt 0.9715 0.4201 0.0000
vt 0.0093 0.0005 0.0000
vt 0.0058 0.5000 0.0000
vt 0.0285 0.5000 0.0000
vt 0.7651 0.2341 0.0000
vt 0.7651 0.5508 0.0000
vt 0.3335 0.9995 0.0000
vt 0.3335 0.5799 0.0000
vt 0.9907 0.0063 0.0000
vt 0.0079 0.0037 0.0000
vt 0.9907 0.9937 0.0000
vt 0.0079 0.9963 0.0000
vt 0.9907 0.4201 0.0000
vt 0.9907 0.5799 0.0000
vt 0.9942 0.5000 0.0000
vt 0.0235 0.0005 0.0000
vt 0.5000 0.5799 0.0000
vt 0.5000 0.4201 0.0000
# 52 texture coords

g door2
usemtl Material__25
s off
f 133/169/48 132/168/48 131/167/48 
f 132/168/48 133/169/48 134/170/48 
f 137/170/49 136/168/49 135/167/49 
f 138/169/49 137/170/49 135/167/49 
f 141/173/50 140/172/50 139/171/50 
f 142/174/50 139/171/50 140/172/50 
f 136/167/51 131/176/51 141/175/51 
f 140/177/51 141/175/51 131/176/51 
f 137/179/52 133/178/52 136/168/52 
f 131/180/52 136/168/52 133/178/52 
f 145/183/53 144/182/53 143/181/53 
f 146/184/53 143/181/53 144/182/53 
f 147/185/50 135/167/50 141/173/50 
f 139/171/50 147/185/50 141/173/50 
f 149/188/50 148/187/50 134/186/50 
f 132/176/50 134/186/50 148/187/50 
f 149/188/50 148/187/50 149/188/50 
f 141/175/51 135/168/51 136/167/51 
f 131/176/51 132/180/51 140/177/51 
f 151/191/54 150/190/54 144/189/54 
f 152/192/54 150/190/54 151/191/54 
f 144/182/53 153/193/53 146/184/53 
f 150/194/53 153/193/53 144/182/53 
f 150/197/49 152/196/49 154/195/49 
f 156/200/53 155/199/53 151/198/53 
f 152/201/53 151/198/53 155/199/53 
f 156/203/48 145/202/48 157/170/48 
f 151/204/48 145/202/48 156/203/48 
f 154/206/53 158/205/53 150/194/53 
f 153/193/53 150/194/53 158/205/53 
f 132/176/50 148/187/50 140/172/50 
f 142/174/50 140/172/50 148/187/50 
f 135/167/50 147/185/50 138/207/50 
f 157/208/50 138/207/50 147/185/50 
f 153/210/55 158/209/55 133/180/55 
f 134/176/55 133/180/55 158/209/55 
f 146/212/56 137/168/56 143/211/56 
f 143/211/56 137/168/56 138/167/56 
f 149/172/57 158/209/57 154/213/57 
f 134/176/57 158/209/57 149/172/57 
f 145/214/57 143/211/57 157/173/57 
f 138/167/57 157/173/57 143/211/57 
f 146/212/58 133/180/58 137/168/58 
f 153/210/58 133/180/58 146/212/58 
f 155/215/49 154/195/49 152/196/49 
f 155/215/49 149/169/49 154/195/49 
f 151/204/48 144/216/48 145/202/48 
f 147/185/59 139/171/59 156/217/59 
f 156/217/59 157/208/59 147/185/59 
f 155/218/60 148/187/60 149/188/60 
f 155/218/60 142/174/60 148/187/60 
f 139/173/57 155/199/57 156/200/57 
f 142/172/57 155/199/57 139/173/57 
# 0 polygons - 53 triangles

#
# object door1
#

v  -22.4389 6.7122 6.8397
v  0.0020 6.7122 6.8397
v  -22.4389 6.7122 7.2334
v  0.0020 6.7122 7.2334
v  0.0020 40.5380 6.8397
v  -22.4389 40.5380 6.8397
v  -22.4389 40.5380 7.2334
v  0.0020 40.5380 7.2334
v  0.0020 26.3312 7.0169
v  0.0020 20.9190 6.8397
v  0.0020 26.3312 6.8397
v  0.0020 20.9190 7.0169
v  -0.1948 40.3412 7.4303
v  -0.5148 26.3312 7.4303
v  -0.1948 26.3312 7.4303
v  -22.2737 40.4310 7.4303
v  0.0020 26.4492 7.1325
v  0.0020 20.8009 7.1325
v  0.0020 20.9190 7.2334
v  -0.5148 20.9190 7.4303
v  -0.6270 26.3312 7.1350
v  -0.6270 20.9190 7.1350
v  -22.2737 6.8192 7.4303
v  -0.1948 20.9190 7.4303
v  -0.1161 20.9190 7.1350
v  -0.1161 26.3312 7.1350
v  0.0020 26.3312 7.2334
v  -0.1948 6.9090 7.4303
# 28 vertices

vn 0.0000 -1.0000 -0.0000
vn 0.0000 1.0000 -0.0000
vn 1.0000 0.0000 -0.0000
vn 0.0000 0.0000 -1.0000
vn -1.0000 0.0000 -0.0000
vn 0.0000 0.0000 1.0000
vn 0.9347 0.0000 -0.3554
vn 0.0016 -0.7915 0.6111
vn 0.0016 0.7915 0.6111
vn 0.7071 0.0000 0.7071
vn -0.7660 0.0000 0.6428
vn 0.7070 -0.7072 -0.0000
vn 0.7070 0.7072 -0.0000
# 13 vertex normals

vt 0.9995 0.9995 0.0000
vt 0.0005 0.9995 0.0000
vt 0.9995 0.3335 0.0000
vt 0.0005 0.3335 0.0000
vt 0.6998 0.5799 0.0000
vt 0.9995 0.4201 0.0000
vt 0.9995 0.5799 0.0000
vt 0.6998 0.4201 0.0000
vt 0.0005 0.5799 0.0000
vt 0.9995 0.0005 0.0000
vt 0.0005 0.4201 0.0000
vt 0.6665 0.0005 0.0000
vt 0.6665 0.9995 0.0000
vt 0.0005 0.0005 0.0000
vt 0.7602 0.7614 0.0000
vt 0.7493 0.4447 0.0000
vt 0.7602 0.4447 0.0000
vt 0.0079 0.7635 0.0000
vt 0.5041 0.5834 0.0000
vt 0.3335 0.0005 0.0000
vt 0.5041 0.4166 0.0000
vt 0.3335 0.4201 0.0000
vt 0.0235 0.5799 0.0000
vt 0.0235 0.4201 0.0000
vt 0.0285 0.5799 0.0000
vt 0.0285 0.4201 0.0000
vt 0.0079 0.0037 0.0000
vt 0.7493 0.3224 0.0000
vt 0.9907 0.0005 0.0000
vt 0.9715 0.5000 0.0000
vt 0.9765 0.0005 0.0000
vt 0.9715 0.5799 0.0000
vt 0.9942 0.4201 0.0000
vt 0.9942 0.5799 0.0000
vt 0.9715 0.4201 0.0000
vt 0.0093 0.0005 0.0000
vt 0.0058 0.5000 0.0000
vt 0.0285 0.5000 0.0000
vt 0.7602 0.0057 0.0000
vt 0.7602 0.3224 0.0000
vt 0.3335 0.9995 0.0000
vt 0.3335 0.5799 0.0000
vt 0.9907 0.0063 0.0000
vt 0.9907 0.9937 0.0000
vt 0.0079 0.9963 0.0000
vt 0.9907 0.4201 0.0000
vt 0.9907 0.5799 0.0000
vt 0.9942 0.5000 0.0000
vt 0.0235 0.0005 0.0000
vt 0.5000 0.5799 0.0000
vt 0.5000 0.4201 0.0000
# 51 texture coords

g door1
usemtl Material__25
s off
f 159/219/61 160/220/61 161/221/61 
f 162/222/61 161/221/61 160/220/61 
f 163/219/62 164/220/62 165/222/62 
f 163/219/62 165/222/62 166/221/62 
f 167/223/63 168/224/63 169/225/63 
f 168/224/63 167/223/63 170/226/63 
f 169/227/64 159/228/64 164/219/64 
f 159/228/64 169/227/64 168/229/64 
f 164/220/65 161/230/65 165/231/65 
f 161/230/65 164/220/65 159/232/65 
f 171/233/66 172/234/66 173/235/66 
f 172/234/66 171/233/66 174/236/66 
f 169/225/63 163/219/63 175/237/63 
f 169/225/63 175/237/63 167/223/63 
f 162/238/63 176/239/63 177/240/63 
f 176/239/63 162/238/63 160/228/63 
f 177/240/63 176/239/63 177/240/63 
f 164/219/64 163/220/64 169/227/64 
f 168/229/64 160/232/64 159/228/64 
f 172/241/67 178/242/67 179/243/67 
f 179/243/67 178/242/67 180/244/67 
f 174/236/66 181/245/66 172/234/66 
f 172/234/66 181/245/66 178/246/66 
f 182/247/62 180/248/62 178/249/62 
f 179/250/66 183/251/66 184/252/66 
f 183/251/66 179/250/66 180/253/66 
f 185/222/61 173/254/61 184/255/61 
f 184/255/61 173/254/61 179/256/61 
f 178/246/66 186/257/66 182/258/66 
f 186/257/66 178/246/66 181/245/66 
f 168/224/63 176/239/63 160/228/63 
f 176/239/63 168/224/63 170/226/63 
f 166/259/63 175/237/63 163/219/63 
f 175/237/63 166/259/63 185/260/63 
f 161/232/68 186/261/68 181/245/68 
f 186/261/68 161/232/68 162/228/68 
f 171/262/69 165/220/69 174/263/69 
f 166/219/69 165/220/69 171/262/69 
f 182/264/70 186/261/70 177/224/70 
f 177/224/70 186/261/70 162/228/70 
f 185/225/70 171/262/70 173/265/70 
f 171/262/70 185/225/70 166/219/70 
f 165/220/71 161/232/71 174/263/71 
f 174/263/71 161/232/71 181/245/71 
f 180/248/62 182/247/62 183/266/62 
f 182/247/62 177/221/62 183/266/62 
f 173/254/61 172/267/61 179/256/61 
f 184/268/72 167/223/72 175/237/72 
f 175/237/72 185/260/72 184/268/72 
f 177/240/73 176/239/73 183/269/73 
f 176/239/73 170/226/73 183/269/73 
f 184/252/70 183/251/70 167/225/70 
f 167/225/70 183/251/70 170/224/70 
# 0 polygons - 53 triangles

